<?xml version="1.0" encoding="UTF-8"?>
<svg width="24px" height="25px" viewBox="0 0 24 25" version="1.1" xmlns="http://www.w3.org/2000/svg" xmlns:xlink="http://www.w3.org/1999/xlink">
    <!-- Generator: Sketch 55 (78076) - https://sketchapp.com -->
    <title>IR</title>
    <desc>Created with Sketch.</desc>
    <g id="Page-1" stroke="none" stroke-width="1" fill="none" fill-rule="evenodd">
        <path d="M2.235,25 C1.115,25 0.205,24.09 0.205,22.97 L0.205,2.46 C0.205,1.34 1.115,0.43 2.235,0.43 C3.355,0.43 4.3,1.34 4.3,2.46 L4.3,22.97 C4.3,24.09 3.355,25 2.235,25 Z M18.965,17.3 L23.095,21.535 C23.865,22.375 23.83,23.635 23.025,24.44 C22.64,24.825 22.115,25 21.625,25 C21.065,25 20.54,24.79 20.155,24.37 L14.205,18.21 L10.285,18.21 L10.285,22.97 C10.285,24.09 9.375,25 8.255,25 C7.135,25 6.225,24.09 6.225,22.97 L6.225,2.46 C6.225,1.34 7.135,0.43 8.255,0.43 L15.08,0.43 C19.98,0.43 23.97,4.42 23.97,9.32 C23.97,12.82 21.94,15.865 18.965,17.3 Z M10.285,4.49 L10.285,14.15 L15.08,14.15 C17.74,14.15 19.875,11.98 19.875,9.32 C19.875,6.66 17.74,4.49 15.08,4.49 L10.285,4.49 Z" id="IR" fill="#FFFFFF" fill-rule="nonzero"></path>
    </g>
</svg>