<svg xmlns="http://www.w3.org/2000/svg" width="24" height="25"><path d="M2.235 25a2.03 2.03 0 0 1-2.03-2.03V2.46A2.03 2.03 0 0 1 2.235.43c1.12 0 2.065.9 2.065 2.03v20.5C4.3 24.1 3.355 25 2.235 25zm16.73-7.7l4.13 4.235a2.08 2.08 0 0 1-.07 2.905c-.385.385-.9.56-1.4.56-.56 0-1.085-.2-1.47-.63l-5.95-6.16h-3.92v4.76a2.03 2.03 0 1 1-4.06 0V2.46A2.03 2.03 0 0 1 8.255.43h6.825c4.9 0 8.9 4 8.9 8.9 0 3.5-2.03 6.545-5.005 7.98zm-8.68-12.8v9.66h4.795c2.66 0 4.795-2.17 4.795-4.83S17.74 4.5 15.08 4.5h-4.795z" fill="#fff" fill-rule="nonzero"/></svg>